<?xml version="1.0" encoding="UTF-8" standalone="no"?>
<!-- Created with Inkscape (http://www.inkscape.org/) -->

<svg
   width="46.911839"
   height="46.947823"
   viewBox="0 0 46.911839 46.947823"
   version="1.1"
   id="svg1"
   inkscape:export-filename="terminal-icon.svg"
   inkscape:export-xdpi="96"
   inkscape:export-ydpi="96"
   xmlns:inkscape="http://www.inkscape.org/namespaces/inkscape"
   xmlns:sodipodi="http://sodipodi.sourceforge.net/DTD/sodipodi-0.dtd"
   xmlns="http://www.w3.org/2000/svg"
   xmlns:svg="http://www.w3.org/2000/svg">
  <sodipodi:namedview
     id="namedview1"
     pagecolor="#505050"
     bordercolor="#eeeeee"
     borderopacity="1"
     inkscape:showpageshadow="0"
     inkscape:pageopacity="0"
     inkscape:pagecheckerboard="0"
     inkscape:deskcolor="#d1d1d1"
     inkscape:document-units="px"
     showguides="false">
    <sodipodi:guide
       position="23.455364,29.057863"
       orientation="1,0"
       id="guide1"
       inkscape:locked="false" />
    <sodipodi:guide
       position="11.970208,24.457468"
       orientation="0,-1"
       id="guide2"
       inkscape:locked="false" />
    <sodipodi:guide
       position="8.6536479,36.51688"
       orientation="0,-1"
       id="guide3"
       inkscape:locked="false" />
    <sodipodi:guide
       position="11.483949,35.198217"
       orientation="1,0"
       id="guide4"
       inkscape:locked="false" />
    <sodipodi:guide
       position="7.1420099,12.491483"
       orientation="0,-1"
       id="guide5"
       inkscape:locked="false" />
    <sodipodi:guide
       position="35.412858,16.865585"
       orientation="1,0"
       id="guide6"
       inkscape:locked="false" />
    <sodipodi:guide
       position="41.417712,32.153101"
       orientation="1,0"
       id="guide7"
       inkscape:locked="false" />
    <sodipodi:guide
       position="21.240616,18.526216"
       orientation="0,-1"
       id="guide8"
       inkscape:locked="false" />
    <sodipodi:guide
       position="5.4767899,28.416648"
       orientation="1,0"
       id="guide9"
       inkscape:locked="false" />
    <sodipodi:guide
       position="6.510442,30.490114"
       orientation="0,-1"
       id="guide10"
       inkscape:locked="false" />
    <sodipodi:guide
       position="8.4634937,33.447401"
       orientation="1,0"
       id="guide11"
       inkscape:locked="false" />
    <sodipodi:guide
       position="17.454957,27.337275"
       orientation="1,0"
       id="guide12"
       inkscape:locked="false" />
    <sodipodi:guide
       position="14.513124,24.457468"
       orientation="1,0"
       id="guide13"
       inkscape:locked="false" />
    <sodipodi:guide
       position="9.6548454,14.520043"
       orientation="1,0"
       id="guide14"
       inkscape:locked="false" />
    <sodipodi:guide
       position="7.7785921,14.321595"
       orientation="0,-1"
       id="guide15"
       inkscape:locked="false" />
    <sodipodi:guide
       position="5.6801088,34.756232"
       orientation="0,-1"
       id="guide16"
       inkscape:locked="false" />
  </sodipodi:namedview>
  <defs
     id="defs1" />
  <g
     inkscape:label="Layer 1"
     inkscape:groupmode="layer"
     id="layer1"
     transform="translate(-0.54483062,-0.5134967)">
    <path
       style="fill:#593cff;fill-opacity:1;stroke-width:0.999996"
       d="M 27.379961,0.51652541 C 21.661147,0.55844161 15.939763,0.48391603 10.222802,0.64230212 7.0905849,0.93986392 4.0951425,2.6902384 2.4665304,5.4113874 1.4255508,7.1298706 0.81602734,9.1068714 0.54962454,11.084095 c 0.0234093,8.698191 -0.0522796,17.397266 0.0525788,26.094877 0.057336,3.254789 1.66052946,6.528728 4.44961916,8.292619 2.2750889,1.504575 5.0525315,2.09058 7.7537595,1.965642 7.80241,0.02257 15.605877,0.05613 23.407734,-0.0441 3.317821,0.0868 6.606713,-1.563893 8.535255,-4.262648 1.496604,-2.053803 2.365462,-4.539334 2.702348,-7.038469 -0.02555,-8.200489 0.05608,-16.401918 -0.05224,-24.601782 C 47.430293,9.1597171 46.711514,6.7954001 45.268165,4.9528828 43.098912,2.2098586 39.596762,0.7850974 36.168487,0.59160703 33.240829,0.47773103 30.309174,0.52434881 27.379961,0.51652541 Z"
       id="path7" />
    <path
       style="fill:#ffffff;fill-opacity:1;stroke-width:1"
       d="m 9.6022467,15.240129 c -0.5595626,0.558975 -1.1191252,1.11795 -1.6786878,1.676924 2.3525121,2.353654 4.7050231,4.707304 7.0575361,7.060961 -2.368257,2.369406 -4.736512,4.73881 -7.1047684,7.108214 1.1374595,1.111362 2.2372734,2.302242 3.4127014,3.350758 3.518907,-3.435582 6.970674,-6.939525 10.454812,-10.410376 -3.487628,-3.487813 -6.975194,-6.975681 -10.462714,-10.463596 -0.559628,0.55904 -1.119251,1.118074 -1.6788793,1.677115 z"
       id="path6" />
    <path
       style="fill:#ffffff;fill-opacity:1;stroke-width:1"
       d="m 23.816789,34.048802 c 0,0.822776 0,1.645552 0,2.468331 5.001421,0 10.002831,0 15.004247,0 0,-1.645555 0,-3.291108 0,-4.936661 -5.001416,0 -10.002826,0 -15.004247,0 0,0.822776 0,1.645553 0,2.46833 z"
       id="path8" />
  </g>
</svg>
